<svg width="188" height="188" viewBox="0 0 188 188" fill="none" xmlns="http://www.w3.org/2000/svg">
<path d="M70.5 94C74.655 94 78.6399 92.3494 81.578 89.4113C84.5161 86.4733 86.1667 82.4884 86.1667 78.3333C86.1667 74.1783 84.5161 70.1934 81.578 67.2553C78.6399 64.3173 74.655 62.6667 70.5 62.6667C66.3449 62.6667 62.36 64.3173 59.422 67.2553C56.4839 70.1934 54.8333 74.1783 54.8333 78.3333C54.8333 82.4884 56.4839 86.4733 59.422 89.4113C62.36 92.3494 66.3449 94 70.5 94ZM94 7.83334L168.417 50.9167V137.083L94 180.167L19.5833 137.083V50.9167L94 7.83334ZM35.25 59.9485V128.052L53.8307 138.807L117.069 92.4333L152.75 113.85V59.9563L94 25.9283L35.25 59.9485Z" fill="white"/>
</svg>
